<?xml version="1.0" encoding="UTF-8"?>
<svg version="1.1" xmlns="http://www.w3.org/2000/svg" width="288" height="346">
<path d="M0 0 C5.88140041 5.21808458 7.93020178 11.77038536 8.5 19.375 C8.5309375 20.20773438 8.561875 21.04046875 8.59375 21.8984375 C8.79484375 22.93871094 8.79484375 22.93871094 9 24 C9.99 24.66 10.98 25.32 12 26 C14.08786431 32.54197484 11.96877151 37.99710667 9 44 C6.5 46.8125 6.5 46.8125 4 49 C1.54916319 52.33586121 -0.13396916 54.97295658 -1 59 C4.41384862 61.98189405 9.57181156 64.24082527 15.5625 65.8125 C23.41991663 68.10385999 28.65860622 72.26840367 33 79.1875 C34.56165597 83.57965741 35.12497979 87.57820014 35.09765625 92.22998047 C35.09435303 93.24808807 35.0910498 94.26619568 35.08764648 95.31515503 C35.07934814 96.40482574 35.0710498 97.49449646 35.0625 98.6171875 C35.05682007 100.31296432 35.05682007 100.31296432 35.05102539 102.04299927 C35.03470215 106.87197306 35.00658835 111.70086173 34.97949219 116.52978516 C34.96137697 120.05891527 34.94930078 123.58803152 34.9375 127.1171875 C34.92920166 128.20280975 34.92090332 129.28843201 34.91235352 130.4069519 C34.89520778 135.7242718 35.1361107 140.73898364 36 146 C36.13738797 148.04758713 36.24263996 150.09757255 36.31640625 152.1484375 C36.35910645 153.30641846 36.40180664 154.46439941 36.44580078 155.6574707 C36.60792826 160.82214675 36.74662144 165.98729935 36.87841797 171.15283203 C36.99181791 174.74109754 37.17548327 178.31824928 37.37890625 181.90234375 C37.92135519 193.84159113 37.31236313 203.0789939 30.65234375 213.28125 C27.44058669 216.57341924 25.51859544 216.8672628 21 217 C19 214 19 214 19.3125 211 C20 208 20 208 21 205 C19.02 204.01 19.02 204.01 17 203 C16.48184569 189.16336086 16.48184569 189.16336086 18.5625 185.125 C21.64962593 178.41385667 18.06063983 169.42903391 16.4375 162.5 C16.20353516 161.48679688 15.96957031 160.47359375 15.72851562 159.4296875 C15.15590618 156.95227521 14.57965985 154.47577035 14 152 C14.03029297 152.57741943 14.06058594 153.15483887 14.09179688 153.74975586 C14.23234351 156.47879315 14.36615397 159.20812616 14.5 161.9375 C14.57154297 163.2977832 14.57154297 163.2977832 14.64453125 164.68554688 C15.52603934 183.00832226 14.76938718 201.33576799 14.20043945 219.65673828 C14.08478282 223.38200261 13.97391161 227.10739145 13.86443424 230.83284187 C13.77804035 233.75355136 13.68900787 236.67417619 13.59924126 239.59478378 C13.53742048 241.62109737 13.4777828 243.64747719 13.41822815 245.67385864 C13.33862803 248.19408433 13.24868972 250.71400862 13.14749146 253.23345947 C13.04455522 255.86217776 12.97007234 258.4823797 12.91964722 261.11175537 C12.87390873 262.45589004 12.82707835 263.79998808 12.77905273 265.14404297 C12.749077 266.34012177 12.71910126 267.53620056 12.68821716 268.76852417 C11.81088539 272.88797452 10.23413551 274.38001181 7 277 C3.6875 278.3125 3.6875 278.3125 1 279 C0.87900434 281.90389576 0.8775019 283.36759296 2 286 C4.45295849 288.24925259 7.00488755 290.1283463 9.75 292.0078125 C12 294 12 294 13 296.5546875 C13 299 13 299 11.85571289 300.62792969 C9.28509352 302.52858498 7.48547538 302.38788725 4.30859375 302.3984375 C3.19935547 302.40230469 2.09011719 302.40617187 0.94726562 302.41015625 C-0.21095703 302.39855469 -1.36917969 302.38695312 -2.5625 302.375 C-3.72458984 302.38660156 -4.88667969 302.39820313 -6.08398438 302.41015625 C-7.7459082 302.40435547 -7.7459082 302.40435547 -9.44140625 302.3984375 C-10.96809937 302.39336182 -10.96809937 302.39336182 -12.52563477 302.38818359 C-13.75044556 302.19603271 -13.75044556 302.19603271 -15 302 C-19.33552675 295.49670987 -16.90842343 285.47827148 -16 278 C-16.99 278 -17.98 278 -19 278 C-19.01981934 278.62044189 -19.03963867 279.24088379 -19.06005859 279.88012695 C-19.15531845 282.69134537 -19.26499302 285.50182166 -19.375 288.3125 C-19.4059375 289.28896484 -19.436875 290.26542969 -19.46875 291.27148438 C-19.50742188 292.20927734 -19.54609375 293.14707031 -19.5859375 294.11328125 C-19.6173584 294.97735596 -19.6487793 295.84143066 -19.68115234 296.73168945 C-20 299 -20 299 -22 302 C-24.38256836 302.37231445 -24.38256836 302.37231445 -27.33984375 302.36328125 C-28.40267578 302.36263672 -29.46550781 302.36199219 -30.56054688 302.36132812 C-31.67494141 302.34521484 -32.78933594 302.32910156 -33.9375 302.3125 C-35.60329102 302.31733398 -35.60329102 302.31733398 -37.30273438 302.32226562 C-45.59951916 302.26698723 -45.59951916 302.26698723 -49 300 C-49.45703125 297.609375 -49.45703125 297.609375 -49 295 C-47.13671875 293.015625 -47.13671875 293.015625 -44.6875 291.25 C-43.48673828 290.36054687 -43.48673828 290.36054687 -42.26171875 289.453125 C-40 288 -40 288 -37 287 C-37 284.03 -37 281.06 -37 278 C-38.051875 277.938125 -39.10375 277.87625 -40.1875 277.8125 C-44.93118272 276.80155122 -46.14696746 275.9178524 -49 272 C-49.82410171 268.0899949 -49.8618046 264.20885376 -49.92578125 260.22265625 C-49.96323456 259.04403519 -50.00068787 257.86541412 -50.03927612 256.65107727 C-50.1548673 252.78845544 -50.23464197 248.92605229 -50.3125 245.0625 C-50.36493093 243.06449786 -50.4173707 241.0664952 -50.47193241 239.06855011 C-50.93978748 221.84129985 -51.17056778 204.60854386 -51.1875 187.375 C-51.18926743 185.98971603 -51.18926743 185.98971603 -51.19107056 184.57644653 C-51.18938245 173.01617742 -50.81485645 161.53176596 -50 150 C-51.0127944 154.18451089 -52.00793368 158.37303075 -53 162.5625 C-53.42925781 164.33463867 -53.42925781 164.33463867 -53.8671875 166.14257812 C-56.6147079 177.19845235 -56.6147079 177.19845235 -53.66796875 187.82421875 C-52.18107618 192.66748871 -52.79648372 197.98746938 -53 203 C-55.475 203.99 -55.475 203.99 -58 205 C-57.67 205.53625 -57.34 206.0725 -57 206.625 C-55.75035402 209.5929092 -55.72243416 211.80799279 -56 215 C-58 217 -58 217 -60.43359375 217.34375 C-63 217 -63 217 -64.66015625 215.53125 C-65.12292969 214.8609375 -65.58570312 214.190625 -66.0625 213.5 C-66.52785156 212.8503125 -66.99320312 212.200625 -67.47265625 211.53125 C-71.4755491 204.8972997 -73.60530571 199.99298189 -73.4609375 192.15625 C-73.46065048 190.90618919 -73.46065048 190.90618919 -73.46035767 189.63087463 C-73.45292643 186.91999368 -73.41498354 184.21058088 -73.375 181.5 C-73.3612478 179.59562689 -73.34823546 177.69124829 -73.3359375 175.78686523 C-73.22349556 163.58943528 -72.66178303 151.4816982 -71.70581055 139.31982422 C-71.1352274 131.46497862 -70.95352248 123.69272911 -71.04296875 115.81640625 C-71.05240509 114.849272 -71.06184143 113.88213776 -71.07156372 112.88569641 C-71.12364635 108.10192921 -71.20796657 103.32158034 -71.33789062 98.53930664 C-71.53318673 88.56126553 -71.58808615 80.28720211 -64.59106445 72.41479492 C-60.04139505 68.21818895 -54.59543395 66.25678661 -48.625 65.125 C-43.50525035 64.10281246 -39.40336728 61.72738115 -35 59 C-36.51166123 55.75105646 -38.36683478 52.92119652 -40.4375 50 C-41.03433594 49.154375 -41.63117188 48.30875 -42.24609375 47.4375 C-43.35049345 45.90265498 -44.48142941 44.38623454 -45.6484375 42.8984375 C-48.69256946 38.62257584 -49.68590442 33.14428314 -49 28 C-48.34386719 27.40316406 -47.68773438 26.80632813 -47.01171875 26.19140625 C-44.44371128 23.39402336 -44.50892278 21.86755393 -44.4375 18.125 C-43.93690633 9.32733244 -40.23482919 4.03456701 -34 -2 C-23.78536061 -8.59695461 -9.5001637 -7.21778351 0 0 Z M-35.875 7.75 C-39.37959085 13.10996247 -40.97491018 19.50105736 -39.69628906 25.89331055 C-38.25706522 30.24782054 -35.71128935 33.3422084 -32 36 C-27.42413521 37.09751306 -23.05722711 36.98508209 -18.375 36.8125 C-17.16070312 36.81830078 -15.94640625 36.82410156 -14.6953125 36.83007812 C-7.59726768 36.91843427 -7.59726768 36.91843427 -1.6640625 33.57421875 C0.18096045 31.23093713 0.18096045 31.23093713 0 29 C0.66 29 1.32 29 2 29 C4.4649849 24.0700302 3.5576984 16.82641149 1.9375 11.6875 C-0.22871342 6.66394794 -4.28525082 3.71364862 -8.80078125 0.86328125 C-19.37919376 -3.28916842 -28.31025649 0.51415838 -35.875 7.75 Z M-44 30 C-43.58894145 35.24099655 -42.75960806 38.24039194 -39 42 C-38.34 42 -37.68 42 -37 42 C-36.87625 42.78375 -36.7525 43.5675 -36.625 44.375 C-36.20882007 47.14057822 -36.20882007 47.14057822 -34 49 C-33.9729957 47.54176788 -33.95360213 46.08339325 -33.9375 44.625 C-33.92589844 43.81289062 -33.91429687 43.00078125 -33.90234375 42.1640625 C-33.85533666 39.95062858 -33.85533666 39.95062858 -35 38 C-35.66 38 -36.32 38 -37 38 C-37.3403125 37.13375 -37.3403125 37.13375 -37.6875 36.25 C-39.33038023 33.4336339 -41.39533227 31.91922886 -44 30 Z M6 30 C0.44753158 35.00289094 0.44753158 35.00289094 -2.53125 41.6015625 C-2.54327301 44.31704488 -2.54327301 44.31704488 -2 48 C0.34287418 45.32752366 0.34287418 45.32752366 1 42 C1.93585938 41.64808594 1.93585938 41.64808594 2.890625 41.2890625 C5.60255941 39.63176925 5.88975997 38.3858401 6.75 35.375 C6.99234375 34.55773437 7.2346875 33.74046875 7.484375 32.8984375 C7.65453125 32.27195313 7.8246875 31.64546875 8 31 C7.34 30.67 6.68 30.34 6 30 Z M-30 41 C-30 46.28 -30 51.56 -30 57 C-22.08 57 -14.16 57 -6 57 C-5.979375 54.916875 -5.95875 52.83375 -5.9375 50.6875 C-5.92589844 49.51574219 -5.91429687 48.34398437 -5.90234375 47.13671875 C-5.85100102 43.96940805 -5.85100102 43.96940805 -7 41 C-14.59 41 -22.18 41 -30 41 Z M-37.15771484 65.93945312 C-40.40567891 67.80920609 -44.00850235 68.73501584 -47.5625 69.875 C-55.02393561 72.40750755 -60.62804519 74.66788808 -64.546875 81.82519531 C-66.80084704 87.20541786 -66.46041849 92.8376866 -66.4765625 98.58203125 C-66.49214203 99.7913884 -66.50772156 101.00074554 -66.52377319 102.24674988 C-66.571158 106.10199323 -66.59898715 109.95705838 -66.625 113.8125 C-66.66165889 117.65710093 -66.70247835 121.50160487 -66.74765015 125.34611511 C-66.7745646 127.73351869 -66.7960474 130.12099187 -66.81118774 132.50849915 C-66.86477997 138.24163166 -67.12856012 143.84699178 -67.76477051 149.54353333 C-68.49858708 157.20667088 -68.34789306 164.96649847 -68.4050293 172.65795898 C-68.42666029 174.84268959 -68.46082279 177.02733237 -68.50756836 179.21166992 C-69.29917495 196.19688924 -69.29917495 196.19688924 -62 211 C-60.74002006 209.02663067 -60.74002006 209.02663067 -61.55859375 206.828125 C-61.84863281 205.97734375 -62.13867188 205.1265625 -62.4375 204.25 C-63.67907287 200.35597599 -64.32566153 197.12504599 -64 193 C-63.01 193 -62.02 193 -61 193 C-60.01 196.465 -60.01 196.465 -59 200 C-58.67 200 -58.34 200 -58 200 C-57.66795793 194.77033745 -57.53661838 191.43799296 -60.1875 186.875 C-63.92788726 179.0614508 -59.79208341 169.65110418 -57.44921875 161.796875 C-51.43684799 140.41735925 -52.42204377 119.01272283 -53 97 C-51.02 96.505 -51.02 96.505 -49 96 C-48.67 98.97 -48.34 101.94 -48 105 C-43.1548892 105 -41.85942703 103.80816519 -38 101 C-36.98421875 100.27683594 -35.9684375 99.55367187 -34.921875 98.80859375 C-22.83241413 89.7712751 -9.35087065 77.90173196 -5 63 C-9.16642697 62.88296553 -13.3324259 62.81246899 -17.5 62.75 C-19.25957031 62.69972656 -19.25957031 62.69972656 -21.0546875 62.6484375 C-27.22431762 62.57911581 -31.81348367 62.75013112 -37.15771484 65.93945312 Z M-1 67 C-1.3403125 67.52207031 -1.680625 68.04414062 -2.03125 68.58203125 C-3.66827321 71.06804256 -5.33074185 73.53551586 -7 76 C-7.58007812 76.86625 -8.16015625 77.7325 -8.7578125 78.625 C-18.96737443 93.31993433 -31.63059311 103.07266366 -47 112 C-46.855625 113.1859375 -46.71125 114.371875 -46.5625 115.59375 C-45.07686016 128.32024621 -44.50714021 140.65183508 -45.5 153.4453125 C-46.25424217 164.49574236 -46.19635039 175.55326331 -46.1875 186.625 C-46.18756042 187.78166168 -46.18762085 188.93832336 -46.18768311 190.1300354 C-46.17405365 208.6615056 -45.79285348 227.16844953 -45.125 245.6875 C-45.08579437 246.84799866 -45.04658875 248.00849731 -45.00619507 249.2041626 C-44.89284212 252.47388964 -44.76564052 255.74273142 -44.6328125 259.01171875 C-44.59937241 259.98416031 -44.56593231 260.95660187 -44.53147888 261.95851135 C-44.49160355 262.84707321 -44.45172821 263.73563507 -44.41064453 264.65112305 C-44.37955597 265.42312546 -44.34846741 266.19512787 -44.31643677 266.99052429 C-44.09458821 269.31151218 -44.09458821 269.31151218 -42 272 C-34.04959151 273.9801848 -25.01035251 273.18624357 -16.82788086 273.18530273 C-14.67347146 273.1875144 -12.51955546 273.20581672 -10.36523438 273.22460938 C-8.97656422 273.22754005 -7.58789168 273.22952702 -6.19921875 273.23046875 C-4.96002686 273.23457764 -3.72083496 273.23868652 -2.4440918 273.24291992 C1.02581302 272.99817935 3.76753855 272.24934867 7 271 C10.70281142 211.39520721 10.70281142 211.39520721 9.35990906 151.77288818 C8.14667222 132.9977098 9.80269203 115.54183519 13 97 C14.32 96.67 15.64 96.34 17 96 C16.89171875 97.14662109 16.89171875 97.14662109 16.78125 98.31640625 C16.09709894 106.21264969 15.79996277 114.03077812 15.96289062 121.95605469 C15.98786385 123.33155361 16.00198956 124.70728765 16.00585938 126.08300781 C16.08159999 142.70807186 19.99232814 158.56753946 24.203125 174.578125 C25.43034913 179.84796977 24.65802659 183.55234149 22.4375 188.4375 C20.7186002 192.69738212 20.76098094 195.45863788 21 200 C21.66 200 22.32 200 23 200 C23.495 196.04 23.495 196.04 24 192 C25.32 192 26.64 192 28 192 C27 198 26 204 25 210 C29.34247554 205.95354936 32.15469943 200.97603905 32.42578125 194.96875 C32.40977631 193.47877409 32.3705777 191.98892959 32.3125 190.5 C32.29630615 189.67338867 32.2801123 188.84677734 32.26342773 187.99511719 C32.22158782 186.10131071 32.16881856 184.20772648 32.10742188 182.31445312 C32.0067104 179.2070463 31.92534157 176.09955779 31.8495636 172.99145508 C31.76107661 169.41076882 31.66286567 165.83037078 31.5625 162.25 C31.54321442 161.55350342 31.52392883 160.85700684 31.50405884 160.1394043 C31.44602993 158.11884293 31.38130377 156.09847742 31.31640625 154.078125 C31.27974854 152.90668945 31.24309082 151.73525391 31.20532227 150.52832031 C31.04442603 146.95425046 31.04442603 146.95425046 30.47973633 143.25439453 C29.80247206 138.12103878 29.93243834 133.01956306 30.0078125 127.8515625 C30.0253288 125.69010886 30.04223708 123.52865023 30.05859375 121.3671875 C30.08950297 117.99464825 30.12503623 114.62236432 30.17138672 111.25 C30.21399803 107.97132291 30.23723867 104.69294236 30.2578125 101.4140625 C30.27643341 100.4189566 30.29505432 99.42385071 30.3142395 98.39859009 C30.34221679 90.66829407 29.63451101 83.17492352 24.5625 77.0625 C23.2940625 76.0415625 23.2940625 76.0415625 22 75 C21.40703125 74.50628906 20.8140625 74.01257813 20.203125 73.50390625 C14.19475511 69.40244808 6.18155002 67.65286818 -1 67 Z M-32 277 C-33.30281672 279.19679273 -33.30281672 279.19679273 -32.8125 282.8125 C-32.78394054 285.97117647 -32.95049364 286.91622001 -34.625 289.75 C-37.22667855 292.2147481 -39.98144474 294.0791012 -43 296 C-43 296.33 -43 296.66 -43 297 C-36.73 297 -30.46 297 -24 297 C-23.95875 294.07125 -23.9175 291.1425 -23.875 288.125 C-23.85679199 287.20348145 -23.83858398 286.28196289 -23.81982422 285.33251953 C-23.8148291 284.60661621 -23.80983398 283.88071289 -23.8046875 283.1328125 C-23.79421387 282.38918457 -23.78374023 281.64555664 -23.77294922 280.87939453 C-23.8334403 278.75509765 -23.8334403 278.75509765 -26 277 C-29.08347826 276.83318891 -29.08347826 276.83318891 -32 277 Z M-12 278 C-12 284.27 -12 290.54 -12 297 C-6.06 297 -0.12 297 6 297 C4.74874616 293.24623848 3.4347596 292.75926711 0 291 C-0.66 291 -1.32 291 -2 291 C-2.66 286.71 -3.32 282.42 -4 278 C-9.46084261 276.48534976 -9.46084261 276.48534976 -12 278 Z " fill="#B2624F" transform="translate(164,34)"/>
<path d="M0 0 C5.88140041 5.21808458 7.93020178 11.77038536 8.5 19.375 C8.54640625 20.62410156 8.54640625 20.62410156 8.59375 21.8984375 C8.79484375 22.93871094 8.79484375 22.93871094 9 24 C9.99 24.66 10.98 25.32 12 26 C13.80993046 31.67111546 12.54105261 35.94726057 10.37109375 41.3984375 C8.37552201 45.18490696 5.87551069 48.09044484 2 50 C0.35 50 -1.3 50 -3 50 C-3 46.37 -3 42.74 -3 39 C-2.67 39 -2.34 39 -2 39 C-1.505 42.465 -1.505 42.465 -1 46 C-0.7525 45.4225 -0.505 44.845 -0.25 44.25 C1 42 1 42 3 40.1875 C5.58526288 37.35986873 6.14911562 34.68716566 7 31 C6.21625 31.804375 5.4325 32.60875 4.625 33.4375 C0.67166464 37.29670833 -1.38787886 37.14286079 -6.8359375 37.24609375 C-8.22396456 37.27903563 -9.61198524 37.31224722 -11 37.34570312 C-13.18778038 37.39308212 -15.37553552 37.43750962 -17.56347656 37.47680664 C-19.67540525 37.51661387 -21.78680324 37.56813893 -23.8984375 37.62109375 C-25.79601807 37.65867798 -25.79601807 37.65867798 -27.73193359 37.69702148 C-30.74830715 37.97666586 -32.46789305 38.41137501 -35 40 C-35 39.34 -35 38.68 -35 38 C-35.66 38 -36.32 38 -37 38 C-38.5078125 36.46875 -38.5078125 36.46875 -40.125 34.5 C-40.66382812 33.8503125 -41.20265625 33.200625 -41.7578125 32.53125 C-42.16773437 32.0259375 -42.57765625 31.520625 -43 31 C-42.72520586 34.93871594 -42.40681716 36.59318284 -39.5625 39.4375 C-36.37433332 42.62566668 -35.93406977 44.6693129 -35 49 C-34.34 49 -33.68 49 -33 49 C-32.34 46.03 -31.68 43.06 -31 40 C-22.75 40 -14.5 40 -6 40 C-6.33 41.32 -6.66 42.64 -7 44 C-7 43.01 -7 42.02 -7 41 C-14.59 41 -22.18 41 -30 41 C-30 46.28 -30 51.56 -30 57 C-22.08 57 -14.16 57 -6 57 C-6 57.66 -6 58.32 -6 59 C-7.11242065 58.9685791 -7.11242065 58.9685791 -8.24731445 58.93652344 C-11.6022388 58.85345863 -14.95694707 58.80136986 -18.3125 58.75 C-19.47974609 58.71648437 -20.64699219 58.68296875 -21.84960938 58.6484375 C-22.96787109 58.63554688 -24.08613281 58.62265625 -25.23828125 58.609375 C-26.26993408 58.58842773 -27.30158691 58.56748047 -28.36450195 58.54589844 C-31.14997838 58.74959225 -31.14997838 58.74959225 -32.86010742 61.02441406 C-33.23627197 61.67635742 -33.61243652 62.32830078 -34 63 C-33.01 62.505 -33.01 62.505 -32 62 C-29.96767366 61.91472372 -27.93252994 61.89283865 -25.8984375 61.90234375 C-24.68671875 61.90556641 -23.475 61.90878906 -22.2265625 61.91210938 C-20.95554688 61.92048828 -19.68453125 61.92886719 -18.375 61.9375 C-17.09625 61.94201172 -15.8175 61.94652344 -14.5 61.95117188 C-11.33328708 61.96298797 -8.16666644 61.97946185 -5 62 C-5 62.33 -5 62.66 -5 63 C-5.74572266 63.0093457 -6.49144531 63.01869141 -7.25976562 63.02832031 C-10.6738215 63.0823603 -14.08655655 63.16594304 -17.5 63.25 C-19.25957031 63.27126953 -19.25957031 63.27126953 -21.0546875 63.29296875 C-28.12823789 63.49166399 -32.96831629 64.35281257 -39 68 C-40.9211128 68.81081187 -42.85720051 69.58800419 -44.8125 70.3125 C-45.72644531 70.65925781 -46.64039062 71.00601563 -47.58203125 71.36328125 C-50 72 -50 72 -53 71 C-52.34 71 -51.68 71 -51 71 C-51 70.01 -51 69.02 -51 68 C-51.66 67.34 -52.32 66.68 -53 66 C-51.700625 65.773125 -50.40125 65.54625 -49.0625 65.3125 C-43.79261246 64.16650858 -39.55337143 61.82029153 -35 59 C-36.51166123 55.75105646 -38.36683478 52.92119652 -40.4375 50 C-41.03433594 49.154375 -41.63117188 48.30875 -42.24609375 47.4375 C-43.35049345 45.90265498 -44.48142941 44.38623454 -45.6484375 42.8984375 C-48.69256946 38.62257584 -49.68590442 33.14428314 -49 28 C-48.34386719 27.40316406 -47.68773438 26.80632813 -47.01171875 26.19140625 C-44.44371128 23.39402336 -44.50892278 21.86755393 -44.4375 18.125 C-43.93690633 9.32733244 -40.23482919 4.03456701 -34 -2 C-23.78536061 -8.59695461 -9.5001637 -7.21778351 0 0 Z M-35.875 7.75 C-39.37959085 13.10996247 -40.97491018 19.50105736 -39.69628906 25.89331055 C-38.25706522 30.24782054 -35.71128935 33.3422084 -32 36 C-27.42413521 37.09751306 -23.05722711 36.98508209 -18.375 36.8125 C-17.16070312 36.81830078 -15.94640625 36.82410156 -14.6953125 36.83007812 C-7.59726768 36.91843427 -7.59726768 36.91843427 -1.6640625 33.57421875 C0.18096045 31.23093713 0.18096045 31.23093713 0 29 C0.66 29 1.32 29 2 29 C4.4649849 24.0700302 3.5576984 16.82641149 1.9375 11.6875 C-0.22871342 6.66394794 -4.28525082 3.71364862 -8.80078125 0.86328125 C-19.37919376 -3.28916842 -28.31025649 0.51415838 -35.875 7.75 Z " fill="#B26A58" transform="translate(164,34)"/>
<path d="M0 0 C0.96486328 0.47179687 0.96486328 0.47179687 1.94921875 0.953125 C7.1222586 3.4031239 12.08340463 5.35693373 17.625 6.8125 C25.44396572 9.11164825 30.67826509 13.29973499 35 20.1875 C36.87178074 25.45188332 37.15854242 30.38563004 37.125 35.9375 C37.12306641 36.73003174 37.12113281 37.52256348 37.11914062 38.33911133 C37.03245742 51.22962582 36.48214054 64.11941035 36 77 C35.67 77 35.34 77 35 77 C34.505 69.575 34.505 69.575 34 62 C31.88074396 64.11925604 32.58168983 68.6196093 32.4375 71.5625 C32.37272461 72.77196289 32.37272461 72.77196289 32.30664062 74.00585938 C32.20024738 76.00368805 32.09959112 78.0018207 32 80 C31.67 80 31.34 80 31 80 C31.00666183 79.40833038 31.01332367 78.81666077 31.02018738 78.20706177 C31.08692309 72.00951612 31.13195823 65.81207375 31.16479492 59.61425781 C31.17981541 57.30594735 31.20023779 54.99766512 31.22631836 52.68945312 C31.26299885 49.35800175 31.27979431 46.02693005 31.29296875 42.6953125 C31.30845261 41.67511017 31.32393646 40.65490784 31.33988953 39.60379028 C31.34143808 32.90460286 30.2625237 27.29614202 28 21 C27.67 20.01 27.34 19.02 27 18 C25.35448038 17.28272222 23.68577711 16.61674772 22 16 C21.34 15.34 20.68 14.68 20 14 C18.1267452 13.27230163 16.22585374 12.61457786 14.3125 12 C13.24128906 11.65453125 12.17007813 11.3090625 11.06640625 10.953125 C7.72316304 9.91395131 4.37751422 8.92114024 1 8 C1 5 1 5 2 2 C1.34 2 0.68 2 0 2 C0 1.34 0 0.68 0 0 Z " fill="#B36D5C" transform="translate(162,93)"/>
<path d="M0 0 C0.33 0 0.66 0 1 0 C1.66 3.3 2.32 6.6 3 10 C3.66 9.34 4.32 8.68 5 8 C5.433125 8.94875 5.86625 9.8975 6.3125 10.875 C7.79302201 14.20041937 7.79302201 14.20041937 11 16 C12.1875 19.625 12.1875 19.625 13 23 C13.66 23 14.32 23 15 23 C15.66 20.03 16.32 17.06 17 14 C25.25 14 33.5 14 42 14 C41.67 15.32 41.34 16.64 41 18 C41 17.01 41 16.02 41 15 C33.41 15 25.82 15 18 15 C18 20.28 18 25.56 18 31 C25.92 31 33.84 31 42 31 C42 31.66 42 32.32 42 33 C40.88757935 32.9685791 40.88757935 32.9685791 39.75268555 32.93652344 C36.3977612 32.85345863 33.04305293 32.80136986 29.6875 32.75 C28.52025391 32.71648437 27.35300781 32.68296875 26.15039062 32.6484375 C25.03212891 32.63554688 23.91386719 32.62265625 22.76171875 32.609375 C21.73006592 32.58842773 20.69841309 32.56748047 19.63549805 32.54589844 C16.85002162 32.74959225 16.85002162 32.74959225 15.13989258 35.02441406 C14.76372803 35.67635742 14.38756348 36.32830078 14 37 C14.99 36.505 14.99 36.505 16 36 C18.03232634 35.91472372 20.06747006 35.89283865 22.1015625 35.90234375 C23.91914063 35.90717773 23.91914063 35.90717773 25.7734375 35.91210938 C27.04445312 35.92048828 28.31546875 35.92886719 29.625 35.9375 C30.90375 35.94201172 32.1825 35.94652344 33.5 35.95117188 C36.66671292 35.96298797 39.83333356 35.97946185 43 36 C43 36.33 43 36.66 43 37 C42.25427734 37.0093457 41.50855469 37.01869141 40.74023438 37.02832031 C37.3261785 37.0823603 33.91344345 37.16594304 30.5 37.25 C28.74042969 37.27126953 28.74042969 37.27126953 26.9453125 37.29296875 C19.87176211 37.49166399 15.03168371 38.35281257 9 42 C7.0788872 42.81081187 5.14279949 43.58800419 3.1875 44.3125 C2.27355469 44.65925781 1.35960938 45.00601563 0.41796875 45.36328125 C-2 46 -2 46 -5 45 C-4.34 45 -3.68 45 -3 45 C-3 44.01 -3 43.02 -3 42 C-3.66 41.34 -4.32 40.68 -5 40 C-3.700625 39.773125 -2.40125 39.54625 -1.0625 39.3125 C4.20738754 38.16650858 8.44662857 35.82029153 13 33 C11.48833877 29.75105646 9.63316522 26.92119652 7.5625 24 C6.96566406 23.154375 6.36882812 22.30875 5.75390625 21.4375 C4.64950655 19.90265498 3.51857059 18.38623454 2.3515625 16.8984375 C-0.78673035 12.49031517 -1.36844617 7.2810618 -1 2 C-0.67 1.34 -0.34 0.68 0 0 Z " fill="#C4897B" transform="translate(116,60)"/>
<path d="M0 0 C-0.33 0.99 -0.66 1.98 -1 3 C4.61 3 10.22 3 16 3 C16.495 4.485 16.495 4.485 17 6 C16.21882813 5.76410156 16.21882813 5.76410156 15.421875 5.5234375 C8.61731834 4.05277525 0.49720844 3.5026236 -5.625 7.1875 C-10.92216828 11.2509261 -13.54824929 15.09159243 -14.73828125 21.6640625 C-15.17277358 25.54206867 -15.00497735 28.16852384 -14 32 C-12.17397468 34.2812671 -10.19263502 36.04062403 -8 38 C-8 38.66 -8 39.32 -8 40 C0.91 40 9.82 40 19 40 C19 40.33 19 40.66 19 41 C17.84999512 41.029729 17.84999512 41.029729 16.67675781 41.06005859 C13.20082781 41.15535446 9.72549494 41.26501598 6.25 41.375 C4.44015625 41.42140625 4.44015625 41.42140625 2.59375 41.46875 C1.43359375 41.50742188 0.2734375 41.54609375 -0.921875 41.5859375 C-1.99018555 41.6173584 -3.05849609 41.6487793 -4.15917969 41.68115234 C-6.92873598 41.99200148 -8.63283621 42.57670532 -11 44 C-11 43.34 -11 42.68 -11 42 C-11.66 42 -12.32 42 -13 42 C-14.5078125 40.46875 -14.5078125 40.46875 -16.125 38.5 C-16.66382812 37.8503125 -17.20265625 37.200625 -17.7578125 36.53125 C-18.16773437 36.0259375 -18.57765625 35.520625 -19 35 C-19.66 36.98 -20.32 38.96 -21 41 C-23.13586678 37.79619983 -23.23132175 36.98060033 -23.125 33.3125 C-23.10695313 32.50425781 -23.08890625 31.69601563 -23.0703125 30.86328125 C-23.04710938 30.24839844 -23.02390625 29.63351563 -23 29 C-22.34 28.67 -21.68 28.34 -21 28 C-20.6439138 25.38392244 -20.6439138 25.38392244 -20.5625 22.3125 C-19.9246007 13.45511134 -16.30118855 8.08668 -10 2 C-6.38386605 -0.33985138 -4.12607947 -1.74564901 0 0 Z " fill="#B56D5D" transform="translate(140,30)"/>
<path d="M0 0 C-0.33 0.99 -0.66 1.98 -1 3 C-1.66 3 -2.32 3 -3 3 C-3 6.63 -3 10.26 -3 14 C-1.02 13.34 0.96 12.68 3 12 C2.47838071 15.85998276 1.69053485 17.30946515 -1 20 C-1.72197162 22.60611077 -1.72197162 22.60611077 -2 25 C-1.34 25 -0.68 25 0 25 C0 25.99 0 26.98 0 28 C0.66 28.66 1.32 29.32 2 30 C1.01 30 0.02 30 -1 30 C-1.66 31.98 -2.32 33.96 -3 36 C-3.66 36 -4.32 36 -5 36 C-6.125 29.375 -6.125 29.375 -5 26 C-14.57 26.33 -24.14 26.66 -34 27 C-32 23 -32 23 -30 22 C-28.18451964 21.98376756 -26.36820701 22.03519019 -24.5546875 22.12109375 C-23.47832031 22.16943359 -22.40195313 22.21777344 -21.29296875 22.26757812 C-20.16503906 22.32365234 -19.03710938 22.37972656 -17.875 22.4375 C-16.73933594 22.48970703 -15.60367188 22.54191406 -14.43359375 22.59570312 C-11.62216864 22.72564294 -8.81105098 22.86220338 -6 23 C-6 16.73 -6 10.46 -6 4 C-14.25 4 -22.5 4 -31 4 C-31 5.65 -31 7.3 -31 9 C-32.5 11.3125 -32.5 11.3125 -34 13 C-34.08090971 11.37581255 -34.13914995 9.75048255 -34.1875 8.125 C-34.22230469 7.22007813 -34.25710937 6.31515625 -34.29296875 5.3828125 C-34.19628906 4.59648438 -34.09960938 3.81015625 -34 3 C-30.60050622 0.73367082 -29.20016883 0.70673363 -25.1953125 0.5859375 C-23.48408203 0.52792969 -23.48408203 0.52792969 -21.73828125 0.46875 C-20.54589844 0.4378125 -19.35351562 0.406875 -18.125 0.375 C-16.94035156 0.33632812 -15.75570312 0.29765625 -14.53515625 0.2578125 C-9.68847682 0.10481698 -4.84935086 -0.02121521 0 0 Z " fill="#AB5340" transform="translate(164,70)"/>
<path d="M0 0 C0.33 0 0.66 0 1 0 C1.01981934 0.67466309 1.03963867 1.34932617 1.06005859 2.04443359 C1.1563811 5.15495861 1.2656181 8.26490789 1.375 11.375 C1.4059375 12.43589844 1.436875 13.49679688 1.46875 14.58984375 C1.50742188 15.64042969 1.54609375 16.69101563 1.5859375 17.7734375 C1.6173584 18.72653809 1.6487793 19.67963867 1.68115234 20.66162109 C1.94571283 23.43160589 2.40385306 25.9016875 3.01367188 28.60351562 C4.26080267 34.60758265 4.25227206 40.45807988 4.1953125 46.5703125 C4.19106766 48.31367386 4.19106766 48.31367386 4.18673706 50.09225464 C4.17562659 53.76994537 4.150539 57.44738405 4.125 61.125 C4.1149584 63.63280896 4.10583462 66.14062177 4.09765625 68.6484375 C4.07571722 74.76570963 4.04233165 80.8828368 4 87 C1 85 1 85 0.34545898 83.26831055 C-1.23710626 72.87706415 -1.24892791 62.17668003 -1.5625 51.6875 C-1.58334656 51.0047702 -1.60419312 50.32204041 -1.62567139 49.61862183 C-1.91739069 39.93379409 -2.10152444 30.25221362 -2.125 20.5625 C-2.12959229 19.50313232 -2.13418457 18.44376465 -2.13891602 17.35229492 C-2.13690186 16.39170166 -2.1348877 15.4311084 -2.1328125 14.44140625 C-2.13112061 13.18372437 -2.13112061 13.18372437 -2.12939453 11.90063477 C-2 10 -2 10 -1 9 C-0.76807135 7.48530552 -0.58784762 5.96245438 -0.4375 4.4375 C-0.35371094 3.61121094 -0.26992187 2.78492188 -0.18359375 1.93359375 C-0.12300781 1.29550781 -0.06242188 0.65742188 0 0 Z " fill="#A44F3C" transform="translate(196,146)"/>
<path d="M0 0 C0.33 0 0.66 0 1 0 C1.02505615 0.68626465 1.0501123 1.3725293 1.07592773 2.07958984 C1.19171427 5.17825817 1.31451885 8.27660923 1.4375 11.375 C1.47681641 12.45523437 1.51613281 13.53546875 1.55664062 14.6484375 C1.59853516 15.6796875 1.64042969 16.7109375 1.68359375 17.7734375 C1.72025146 18.72653809 1.75690918 19.67963867 1.79467773 20.66162109 C1.85763465 23.02132349 1.85763465 23.02132349 3 25 C5.58605332 25.4683265 5.58605332 25.4683265 8.5625 25.625 C9.57441406 25.69976562 10.58632812 25.77453125 11.62890625 25.8515625 C12.80259766 25.92503906 12.80259766 25.92503906 14 26 C14 26.33 14 26.66 14 27 C16.64 27.33 19.28 27.66 22 28 C21.67 28.66 21.34 29.32 21 30 C18.35139573 30.59355614 15.70802678 30.74209269 13 31 C13.05800781 31.65226562 13.11601562 32.30453125 13.17578125 32.9765625 C13.59051618 41.01057063 13.59051618 41.01057063 10.875 44.4375 C7.16739362 47.74210569 4.15727783 49.85930797 -0.875 50.1875 C-1.926875 50.0946875 -1.926875 50.0946875 -3 50 C-3.33 51.32 -3.66 52.64 -4 54 C-4.26953125 51.734375 -4.26953125 51.734375 -4 49 C-2.13671875 47.015625 -2.13671875 47.015625 0.3125 45.25 C1.11300781 44.65703125 1.91351563 44.0640625 2.73828125 43.453125 C5 42 5 42 8 41 C8 38.03 8 35.06 8 32 C6.948125 31.938125 5.89625 31.87625 4.8125 31.8125 C0.07054902 30.80192028 -1.17909345 29.94154066 -4 26 C-4.61308648 22.04485834 -4.4709319 18.1775465 -4.3125 14.1875 C-4.28994141 13.11306641 -4.26738281 12.03863281 -4.24414062 10.93164062 C-4.18535598 8.2863315 -4.10323957 5.64388587 -4 3 C-3.67 3 -3.34 3 -3 3 C-2.67 7.29 -2.34 11.58 -2 16 C-0.00383446 14.00383446 -0.59016573 10.18298037 -0.4375 7.4375 C-0.39431641 6.72658203 -0.35113281 6.01566406 -0.30664062 5.28320312 C-0.20028223 3.52238088 -0.09961154 1.7612168 0 0 Z " fill="#BB7769" transform="translate(119,280)"/>
<path d="M0 0 C2.73913043 4.10869565 2.73913043 4.10869565 3 7 C1.8125 9.078125 1.8125 9.078125 0 11.25 C-0.65226562 12.03890625 -1.30453125 12.8278125 -1.9765625 13.640625 C-2.64429688 14.41921875 -3.31203125 15.1978125 -4 16 C-4.56460938 16.67546875 -5.12921875 17.3509375 -5.7109375 18.046875 C-12.40288709 25.90127593 -19.50844238 33.09987141 -28 39 C-29.32 38.34 -30.64 37.68 -32 37 C-32 36.01 -32 35.02 -32 34 C-29.89279825 32.19853733 -27.79712064 30.56578409 -25.5625 28.9375 C-15.4433843 21.26602341 -5.74538884 11.49077767 0 0 Z " fill="#B56C5B" transform="translate(157,101)"/>
<path d="M0 0 C0.33 0 0.66 0 1 0 C1 1.98 1 3.96 1 6 C1.66 6 2.32 6 3 6 C2.8827136 13.2449995 2.75787765 20.48984013 2.62768555 27.73461914 C2.58426057 30.20138569 2.54259128 32.66818378 2.50268555 35.13500977 C2.44516555 38.67213466 2.38141925 42.20909966 2.31640625 45.74609375 C2.29133751 47.41169594 2.29133751 47.41169594 2.26576233 49.11094666 C2.24581711 50.13192947 2.22587189 51.15291229 2.20532227 52.20483398 C2.18977798 53.10862289 2.1742337 54.0124118 2.15821838 54.94358826 C2 57 2 57 1 58 C0.76321284 60.69235776 0.57801975 63.36498156 0.4375 66.0625 C0.39431641 66.82111328 0.35113281 67.57972656 0.30664062 68.36132812 C0.20026367 70.24065438 0.09960066 72.12030244 0 74 C-0.33 74 -0.66 74 -1 74 C-1.81968665 67.53980625 -2.1599224 61.23507572 -2.16796875 54.7265625 C-2.17129715 53.76334076 -2.17462555 52.80011902 -2.17805481 51.80770874 C-2.18309179 49.77561923 -2.18546414 47.74352153 -2.18530273 45.71142578 C-2.18746928 42.66814761 -2.20560472 39.62524454 -2.22460938 36.58203125 C-2.25882653 24.25558234 -1.58399729 12.22504874 0 0 Z " fill="#AD5A48" transform="translate(115,182)"/>
<path d="M0 0 C-0.19921875 1.796875 -0.19921875 1.796875 -1 4 C-3.14453125 5.640625 -3.14453125 5.640625 -5.8125 7.25 C-12.03115565 11.38096411 -14.42567458 15.84214236 -16 23 C-16.12026548 24.5182883 -16.19953972 26.04016762 -16.24609375 27.5625 C-16.29358765 28.87408081 -16.29358765 28.87408081 -16.34204102 30.2121582 C-16.38929321 31.59213989 -16.38929321 31.59213989 -16.4375 33 C-16.74879944 40.82282723 -17.3640341 48.32843175 -19 56 C-19.33 56 -19.66 56 -20 56 C-20.0497158 50.73471426 -20.08586827 45.46956746 -20.10986328 40.20410156 C-20.11987439 38.41566587 -20.13348733 36.62724634 -20.15087891 34.83886719 C-20.17534362 32.25712066 -20.18653221 29.67559196 -20.1953125 27.09375 C-20.20563507 26.30383667 -20.21595764 25.51392334 -20.22659302 24.70007324 C-20.22814934 16.86823942 -19.1490703 10.33262814 -13.640625 4.4765625 C-9.38262918 0.64436626 -5.64172189 -0.40298013 0 0 Z " fill="#B46B59" transform="translate(114,101)"/>
<path d="M0 0 C0.33 0 0.66 0 1 0 C1.03738281 0.69867188 1.07476562 1.39734375 1.11328125 2.1171875 C1.21189453 3.48230469 1.21189453 3.48230469 1.3125 4.875 C1.39951172 6.23238281 1.39951172 6.23238281 1.48828125 7.6171875 C1.7882039 10.36221601 1.7882039 10.36221601 5 12 C6.80993046 17.67111546 5.54105261 21.94726057 3.37109375 27.3984375 C1.37552201 31.18490696 -1.12448931 34.09044484 -5 36 C-6.65 36 -8.3 36 -10 36 C-10 32.37 -10 28.74 -10 25 C-9.67 25 -9.34 25 -9 25 C-8.67 27.31 -8.34 29.62 -8 32 C-7.7525 31.4225 -7.505 30.845 -7.25 30.25 C-6 28 -6 28 -4 26.1875 C-1.41473712 23.35986873 -0.85088438 20.68716566 0 17 C-0.78375 17.804375 -1.5675 18.60875 -2.375 19.4375 C-5 22 -5 22 -7 23 C-8.67654729 22.72057545 -10.34608154 22.39171753 -12 22 C-11.21654285 20.82780457 -10.42297164 19.66236332 -9.625 18.5 C-9.18414062 17.8503125 -8.74328125 17.200625 -8.2890625 16.53125 C-7.86367187 16.0259375 -7.43828125 15.520625 -7 15 C-6.34 15 -5.68 15 -5 15 C-4.67 14.34 -4.34 13.68 -4 13 C-3.24783203 12.35611328 -3.24783203 12.35611328 -2.48046875 11.69921875 C-0.4991404 9.42513476 -0.50579981 7.78931708 -0.3125 4.8125 C-0.24675781 3.91144531 -0.18101562 3.01039062 -0.11328125 2.08203125 C-0.07589844 1.39496094 -0.03851563 0.70789062 0 0 Z " fill="#B5705F" transform="translate(171,48)"/>
<path d="M0 0 C0.66 0.33 1.32 0.66 2 1 C1.8901717 4.43816147 1.75953137 7.87522348 1.625 11.3125 C1.57859375 12.77719727 1.57859375 12.77719727 1.53125 14.27148438 C1.49257812 15.20927734 1.45390625 16.14707031 1.4140625 17.11328125 C1.3826416 17.97735596 1.3512207 18.84143066 1.31884766 19.73168945 C1 22 1 22 -1 25 C-3.3984375 25.35644531 -3.3984375 25.35644531 -6.375 25.328125 C-7.44234375 25.32296875 -8.5096875 25.3178125 -9.609375 25.3125 C-11.28773438 25.2815625 -11.28773438 25.2815625 -13 25.25 C-14.11890625 25.24484375 -15.2378125 25.2396875 -16.390625 25.234375 C-24.6916564 25.1541718 -24.6916564 25.1541718 -27 24 C-27 22.35 -27 20.7 -27 19 C-25.35 18.67 -23.7 18.34 -22 18 C-22 18.66 -22 19.32 -22 20 C-15.73 20 -9.46 20 -3 20 C-3.495 17.525 -3.495 17.525 -4 15 C-4.08805469 13.27257421 -4.13023347 11.54216068 -4.125 9.8125 C-4.12757813 8.95269531 -4.13015625 8.09289062 -4.1328125 7.20703125 C-4 5 -4 5 -3 3 C-2.34 3 -1.68 3 -1 3 C-0.67 2.01 -0.34 1.02 0 0 Z " fill="#B67565" transform="translate(143,311)"/>
<path d="M0 0 C0.33 0 0.66 0 1 0 C2.70937855 24.42804221 2.70937855 24.42804221 -3.0625 34.5 C-3.43238037 35.15677734 -3.80226074 35.81355469 -4.18334961 36.49023438 C-6.43993389 39.96146573 -7.7409297 40.93835456 -11.80859375 41.90625 C-12.86175781 41.9371875 -13.91492188 41.968125 -15 42 C-17 39 -17 39 -17 35 C-15.948125 35.04125 -14.89625 35.0825 -13.8125 35.125 C-9.98021015 34.41003326 -9.98021015 34.41003326 -8.45703125 31.91796875 C-6.14630035 27.398152 -4.40369205 23.1134327 -4 18 C-3.01 18.99 -2.02 19.98 -1 21 C-0.67 14.07 -0.34 7.14 0 0 Z " fill="#B16756" transform="translate(200,209)"/>
<path d="M0 0 C0.33 0 0.66 0 1 0 C1.75161936 6.01892012 2.16100694 11.87483122 2.125 17.9375 C2.12306641 18.74292236 2.12113281 19.54834473 2.11914062 20.37817383 C2.05926699 28.93594531 1.57115828 37.46322363 1 46 C0.67 46 0.34 46 0 46 C-0.33 43.69 -0.66 41.38 -1 39 C-1.33 39 -1.66 39 -2 39 C-3.25762266 32.60205068 -2.98436112 26.36861785 -2.75805664 19.89477539 C-2.68735705 17.8082811 -2.63325181 15.72177147 -2.58007812 13.63476562 C-2.53689453 12.31798828 -2.49371094 11.00121094 -2.44921875 9.64453125 C-2.41143311 8.44159424 -2.37364746 7.23865723 -2.3347168 5.99926758 C-2 3 -2 3 0 0 Z " fill="#AE6352" transform="translate(176,228)"/>
<path d="M0 0 C0.99 0 1.98 0 3 0 C3.02835938 0.556875 3.05671875 1.11375 3.0859375 1.6875 C3.60514 5.84111998 4.21695648 8.25775371 7.32421875 11.203125 C9.11197957 12.53948259 10.93209862 13.83389118 12.78515625 15.078125 C15.38814657 17.33680443 15.71516147 18.62844192 16 22 C15.01 22.66 14.02 23.32 13 24 C11.0625 23.25 11.0625 23.25 9 22 C8.896875 21.38125 8.79375 20.7625 8.6875 20.125 C7.81822148 17.43813913 6.99613694 17.24445317 4.5625 15.9375 C3.94503906 15.63714844 3.32757813 15.33679688 2.69140625 15.02734375 C1 14 1 14 -1 11 C-1.23046875 8.80859375 -1.23046875 8.80859375 -1.1875 6.4375 C-1.18105469 5.65246094 -1.17460937 4.86742187 -1.16796875 4.05859375 C-1 2 -1 2 0 0 Z " fill="#B16555" transform="translate(161,311)"/>
<path d="M0 0 C1.18817968 3.73310433 1.11362739 7.27491645 1.09765625 11.171875 C1.09553383 12.1955014 1.09553383 12.1955014 1.09336853 13.23980713 C1.08779084 15.40991684 1.07524254 17.5799217 1.0625 19.75 C1.05748211 21.22525892 1.05291971 22.70051947 1.04882812 24.17578125 C1.03782875 27.78388798 1.02057953 31.39193375 1 35 C1.74515899 31.61363691 2.16770563 28.38056897 2.31640625 24.91796875 C2.35830078 23.98662109 2.40019531 23.05527344 2.44335938 22.09570312 C2.50233398 20.65614258 2.50233398 20.65614258 2.5625 19.1875 C2.60568359 18.20845703 2.64886719 17.22941406 2.69335938 16.22070312 C2.7990226 13.81392973 2.90112327 11.40706017 3 9 C3.33 9 3.66 9 4 9 C4 24.18 4 39.36 4 55 C3.67 55 3.34 55 3 55 C2.67 51.04 2.34 47.08 2 43 C1.87625 44.753125 1.7525 46.50625 1.625 48.3125 C1.35277339 52.16904361 1.18994248 53.71508627 -1 57 C-1.02531216 49.36450914 -1.04285088 41.72902905 -1.05493164 34.09350586 C-1.05996681 31.49486893 -1.0667953 28.89623485 -1.07543945 26.29760742 C-1.08754062 22.56688741 -1.09323641 18.83620478 -1.09765625 15.10546875 C-1.10281754 13.93976852 -1.10797882 12.7740683 -1.11329651 11.57304382 C-1.11337204 10.49214981 -1.11344757 9.4112558 -1.11352539 8.29760742 C-1.115746 7.34496506 -1.11796661 6.39232269 -1.12025452 5.41081238 C-1 3 -1 3 0 0 Z " fill="#B67D6E" transform="translate(94,115)"/>
<path d="M0 0 C0.66 0.33 1.32 0.66 2 1 C2 15.52 2 30.04 2 45 C-1.41919182 40.44107757 -1.41136143 37.80330876 -1.328125 32.40234375 C-1.32625183 31.57166885 -1.32437866 30.74099396 -1.32244873 29.88514709 C-1.31573773 28.13261895 -1.3018421 26.38010555 -1.28125 24.62768555 C-1.25007209 21.94370618 -1.24027475 19.26031448 -1.234375 16.57617188 C-1.22520535 14.87238867 -1.2148297 13.16861143 -1.203125 11.46484375 C-1.19887512 10.66167221 -1.19462524 9.85850067 -1.19024658 9.0309906 C-1.14837834 5.77283821 -1.03727881 3.11183643 0 0 Z " fill="#AC513B" transform="translate(93,186)"/>
<path d="M0 0 C0.33 0 0.66 0 1 0 C1.04898438 0.83144531 1.09796875 1.66289062 1.1484375 2.51953125 C1.22320312 3.60621094 1.29796875 4.69289063 1.375 5.8125 C1.44460937 6.89144531 1.51421875 7.97039062 1.5859375 9.08203125 C1.81195733 12.18626186 1.81195733 12.18626186 4 15 C3.0078043 17.59579847 2.46306676 18.76451254 -0.05859375 20.046875 C-0.84363281 20.27890625 -1.62867188 20.5109375 -2.4375 20.75 C-3.61119141 21.11351562 -3.61119141 21.11351562 -4.80859375 21.484375 C-7 22 -7 22 -10 22 C-10.99 21.34 -11.98 20.68 -13 20 C-13.99 19.855625 -14.98 19.71125 -16 19.5625 C-19.24809034 18.95348306 -19.88572475 18.3596822 -22 16 C-20.91460937 15.93941406 -19.82921875 15.87882812 -18.7109375 15.81640625 C-17.26561514 15.73193936 -15.82030318 15.64729449 -14.375 15.5625 C-13.66214844 15.52318359 -12.94929687 15.48386719 -12.21484375 15.44335938 C-11.16103516 15.38051758 -11.16103516 15.38051758 -10.0859375 15.31640625 C-9.4470459 15.27974854 -8.8081543 15.24309082 -8.14990234 15.20532227 C-5.41615765 14.94424127 -2.70881863 14.45146977 0 14 C0 9.38 0 4.76 0 0 Z " fill="#B36755" transform="translate(171,291)"/>
<path d="M0 0 C0.33 0 0.66 0 1 0 C2.18750493 13.89701717 1.60763481 27.1530892 0 41 C-0.33 41 -0.66 41 -1 41 C-1.33 37.37 -1.66 33.74 -2 30 C-2.66 30.66 -3.32 31.32 -4 32 C-4.18638692 25.78710258 -4.29925901 20.06583643 -2.5078125 14.0859375 C-1.63925601 10.51817468 -1.49245829 6.8779015 -1.24609375 3.22265625 C-1 1 -1 1 0 0 Z " fill="#AE5A45" transform="translate(96,157)"/>
<path d="M0 0 C0.33 0 0.66 0 1 0 C1.33 10.23 1.66 20.46 2 31 C2.33 31 2.66 31 3 31 C3.33 22.42 3.66 13.84 4 5 C4.33 5 4.66 5 5 5 C5.33 17.87 5.66 30.74 6 44 C5.01 44.495 5.01 44.495 4 45 C3.01 44.67 2.02 44.34 1 44 C-0.14315747 41.71368506 -0.12112732 40.45652594 -0.11352539 37.91748047 C-0.11344986 37.07675995 -0.11337433 36.23603943 -0.11329651 35.36984253 C-0.10813522 34.46146637 -0.10297394 33.55309021 -0.09765625 32.6171875 C-0.0962413 31.68778351 -0.09482635 30.75837952 -0.09336853 29.80081177 C-0.08776053 26.82550876 -0.07520668 23.85028036 -0.0625 20.875 C-0.05748603 18.86067817 -0.05292295 16.84635516 -0.04882812 14.83203125 C-0.0377885 9.88799198 -0.02051849 4.94400865 0 0 Z " fill="#BA8072" transform="translate(91,193)"/>
<path d="M0 0 C-0.09489618 4.1954915 -0.20125318 8.39050437 -0.31738281 12.58544922 C-0.35522034 14.00692184 -0.39014384 15.42847561 -0.421875 16.85009766 C-0.62193949 25.7092032 -1.23705688 34.28679344 -3 43 C-3.33 43 -3.66 43 -4 43 C-4.0247366 37.66146176 -4.0428774 32.32295697 -4.05493164 26.984375 C-4.05995741 25.16861388 -4.06677903 23.3528568 -4.07543945 21.53710938 C-4.08758189 18.9257711 -4.09324591 16.31448638 -4.09765625 13.703125 C-4.10281754 12.89256653 -4.10797882 12.08200806 -4.11329651 11.24688721 C-4.11398904 4.27415669 -4.11398904 4.27415669 -3 1 C-1 0 -1 0 0 0 Z " fill="#A64F39" transform="translate(98,114)"/>
<path d="M0 0 C0.9075 0.639375 1.815 1.27875 2.75 1.9375 C2.75 3.5875 2.75 5.2375 2.75 6.9375 C0.275 6.4425 0.275 6.4425 -2.25 5.9375 C-2.58 4.9475 -2.91 3.9575 -3.25 2.9375 C-8.86 2.6075 -14.47 2.2775 -20.25 1.9375 C-20.25 1.2775 -20.25 0.6175 -20.25 -0.0625 C-20.91 -0.3925 -21.57 -0.7225 -22.25 -1.0625 C-15.36855043 -4.31207341 -6.59148111 -3.77231404 0 0 Z " fill="#B36E5D" transform="translate(159.25,31.0625)"/>
<path d="M0 0 C0.33 0 0.66 0 1 0 C1.02465622 4.25414623 1.04283899 8.50825498 1.05493164 12.76245117 C1.05997101 14.21070073 1.06680253 15.65894517 1.07543945 17.10717773 C1.08752247 19.18474588 1.09323211 21.26224697 1.09765625 23.33984375 C1.10289307 24.59144287 1.10812988 25.84304199 1.11352539 27.13256836 C1 30 1 30 0 31 C-0.23075082 32.34747084 -0.41153063 33.70377565 -0.5625 35.0625 C-0.706875 36.361875 -0.85125 37.66125 -1 39 C-1.33 39 -1.66 39 -2 39 C-2.1685572 34.83766921 -2.32900921 30.67512587 -2.48217773 26.51220703 C-2.53532535 25.09806049 -2.59063076 23.68399324 -2.64819336 22.27001953 C-2.73087153 20.22966607 -2.80561177 18.18914706 -2.87890625 16.1484375 C-2.9260376 14.92302246 -2.97316895 13.69760742 -3.02172852 12.43505859 C-3.00105055 9.1660819 -2.63626684 6.20061501 -2 3 C-1.34 3 -0.68 3 0 3 C0 2.01 0 1.02 0 0 Z " fill="#AC5741" transform="translate(118,265)"/>
<path d="M0 0 C1.32 0 2.64 0 4 0 C3.99214478 1.09948975 3.99214478 1.09948975 3.98413086 2.22119141 C3.88578869 18.18249969 4.08933366 34.06333898 5 50 C1.02679152 46.02679152 1.80413791 40.19133671 1.68359375 34.85546875 C1.66281265 34.08568192 1.64203156 33.31589508 1.62062073 32.52278137 C1.55553951 30.07777333 1.49643409 27.63266317 1.4375 25.1875 C1.39427532 23.52407823 1.35065979 21.86066656 1.30664062 20.19726562 C1.19990093 16.13161352 1.09851829 12.06585929 1 8 C0.67 8.66 0.34 9.32 0 10 C-0.66 10 -1.32 10 -2 10 C-1.85950482 8.52031676 -1.71245174 7.04125484 -1.5625 5.5625 C-1.48128906 4.73878906 -1.40007812 3.91507813 -1.31640625 3.06640625 C-1 1 -1 1 0 0 Z " fill="#B26F5F" transform="translate(177,130)"/>
<path d="M0 0 C3.95812043 7.10387553 6.03144154 16.05891034 4 24 C2.02 24 0.04 24 -2 24 C-1.814375 22.989375 -1.62875 21.97875 -1.4375 20.9375 C-0.82761782 17.09440792 -0.82761782 17.09440792 -1.5625 13.6875 C-2.13823582 8.83486952 -1.14632049 4.70844035 0 0 Z " fill="#B46C5A" transform="translate(185,195)"/>
<path d="M0 0 C0.66 0.33 1.32 0.66 2 1 C1.92547376 4.13010209 1.59006466 6.29383097 -0.44921875 8.734375 C-4.37126377 12.30760474 -5.32182554 13 -11 13 C-11 9.37 -11 5.74 -11 2 C-10.67 2 -10.34 2 -10 2 C-9.67 4.31 -9.34 6.62 -9 9 C-8.7525 8.4225 -8.505 7.845 -8.25 7.25 C-6.17445909 3.51402637 -4.06826056 1.35608685 0 0 Z " fill="#B16555" transform="translate(172,71)"/>
<path d="M0 0 C1.74506836 0.00966797 1.74506836 0.00966797 3.52539062 0.01953125 C4.74033203 0.03628906 5.95527344 0.05304688 7.20703125 0.0703125 C8.43357422 0.07933594 9.66011719 0.08835937 10.92382812 0.09765625 C13.9559242 0.12125233 16.98763063 0.15417409 20.01953125 0.1953125 C19.68953125 1.1853125 19.35953125 2.1753125 19.01953125 3.1953125 C10.76953125 3.1953125 2.51953125 3.1953125 -5.98046875 3.1953125 C-5.98046875 4.8453125 -5.98046875 6.4953125 -5.98046875 8.1953125 C-7.48046875 10.5078125 -7.48046875 10.5078125 -8.98046875 12.1953125 C-9.06137846 10.57112505 -9.1196187 8.94579505 -9.16796875 7.3203125 C-9.20277344 6.41539063 -9.23757812 5.51046875 -9.2734375 4.578125 C-9.17675781 3.79179688 -9.08007812 3.00546875 -8.98046875 2.1953125 C-5.48710057 -0.13359962 -4.1203901 -0.04019893 0 0 Z " fill="#A34C38" transform="translate(138.98046875,70.8046875)"/>
<path d="M0 0 C5.94 0 11.88 0 18 0 C18.33 0.66 18.66 1.32 19 2 C19.99 2.66 20.98 3.32 22 4 C14.08 4 6.16 4 -2 4 C-1.34 3.67 -0.68 3.34 0 3 C0 2.01 0 1.02 0 0 Z " fill="#A44D39" transform="translate(152,331)"/>
<path d="M0 0 C1.75043149 0.79071216 3.50032778 1.58260918 5.25 2.375 C6.71179688 3.03628906 6.71179688 3.03628906 8.203125 3.7109375 C10.49311839 4.76638138 12.75366601 5.85543935 15 7 C15 7.66 15 8.32 15 9 C15.66 9.33 16.32 9.66 17 10 C17 10.66 17 11.32 17 12 C17.99 12.33 18.98 12.66 20 13 C15.54856736 12.35731596 11.41118353 11.29333357 7.125 9.9375 C5.97257813 9.57527344 4.82015625 9.21304688 3.6328125 8.83984375 C2.76398438 8.56269531 1.89515625 8.28554687 1 8 C1 5 1 5 2 2 C1.34 2 0.68 2 0 2 C0 1.34 0 0.68 0 0 Z " fill="#B87463" transform="translate(162,93)"/>
<path d="M0 0 C2.01136276 2.55991624 3.62845496 5.04590299 5 8 C5.66 7.34 6.32 6.68 7 6 C7.66 6.33 8.32 6.66 9 7 C9 8.98 9 10.96 9 13 C5.04218214 12.72387317 3.30043492 12.25946652 0.25 9.625 C-4 4.66666667 -4 4.66666667 -4 1 C-2.68 0.67 -1.36 0.34 0 0 Z " fill="#AE5945" transform="translate(97,236)"/>
<path d="M0 0 C0.33 0 0.66 0 1 0 C1.33 10.23 1.66 20.46 2 31 C0.68 30.67 -0.64 30.34 -2 30 C-2.02888146 26.68751813 -2.04675799 23.37506833 -2.0625 20.0625 C-2.07087891 19.11697266 -2.07925781 18.17144531 -2.08789062 17.19726562 C-2.09111328 16.29814453 -2.09433594 15.39902344 -2.09765625 14.47265625 C-2.10289307 13.64000244 -2.10812988 12.80734863 -2.11352539 11.94946289 C-2 10 -2 10 -1 9 C-0.76807135 7.48530552 -0.58784762 5.96245438 -0.4375 4.4375 C-0.35371094 3.61121094 -0.26992187 2.78492188 -0.18359375 1.93359375 C-0.12300781 1.29550781 -0.06242188 0.65742188 0 0 Z " fill="#AB513C" transform="translate(196,146)"/>
<path d="M0 0 C0.99 0.33 1.98 0.66 3 1 C2.67 1.66 2.34 2.32 2 3 C7.28 3 12.56 3 18 3 C18 3.33 18 3.66 18 4 C20.475 4.495 20.475 4.495 23 5 C23 5.33 23 5.66 23 6 C14.75 6 6.5 6 -2 6 C-2 4.35 -2 2.7 -2 1 C-1.34 0.67 -0.68 0.34 0 0 Z " fill="#A34B37" transform="translate(118,329)"/>
<path d="M0 0 C0.66 1.32 1.32 2.64 2 4 C2.66 4 3.32 4 4 4 C4 10.6 4 17.2 4 24 C1 22 1 22 0.31860352 20.14550781 C-0.00737935 17.95030675 -0.11350481 15.89067279 -0.09765625 13.671875 C-0.09282227 12.47304687 -0.09282227 12.47304687 -0.08789062 11.25 C-0.07951172 10.425 -0.07113281 9.6 -0.0625 8.75 C-0.05798828 7.90953125 -0.05347656 7.0690625 -0.04882812 6.203125 C-0.03707961 4.13538599 -0.01914522 2.06768376 0 0 Z " fill="#A34835" transform="translate(196,209)"/>
<path d="M0 0 C3 2 3 2 3.77734375 4.6953125 C4.02773603 8.41166109 3.48149459 11.27254121 2.5625 14.875 C2.27503906 16.02742188 1.98757812 17.17984375 1.69140625 18.3671875 C1.34916016 19.67042969 1.34916016 19.67042969 1 21 C0.67 21 0.34 21 0 21 C-0.33 19.35 -0.66 17.7 -1 16 C-1.99 17.32 -2.98 18.64 -4 20 C-3.21085905 13.21338787 -1.58725189 6.63850633 0 0 Z " fill="#B06554" transform="translate(108,185)"/>
<path d="M0 0 C0.625 2.8125 0.625 2.8125 1 6 C0.01 7.485 0.01 7.485 -1 9 C-1.3696435 12.10208984 -1.3696435 12.10208984 -1.4140625 15.63671875 C-1.45273438 16.93544922 -1.49140625 18.23417969 -1.53125 19.57226562 C-1.56270517 20.94400573 -1.59395251 22.31575061 -1.625 23.6875 C-1.66319197 25.07098785 -1.70224442 26.45445223 -1.7421875 27.83789062 C-1.83660517 31.2251245 -1.92218118 34.61235069 -2 38 C-2.33 38 -2.66 38 -3 38 C-3.02505615 37.19892822 -3.0501123 36.39785645 -3.07592773 35.57250977 C-3.19279735 31.90237974 -3.31510745 28.23244983 -3.4375 24.5625 C-3.47681641 23.30244141 -3.51613281 22.04238281 -3.55664062 20.74414062 C-3.78178694 14.11098393 -4.14758434 7.5829411 -5 1 C-3 0 -3 0 0 0 Z " fill="#A95B48" transform="translate(197,114)"/>
<path d="M0 0 C1.25240315 3.75720944 0.4357968 4.41050801 -1 8 C-1.45555876 10.66402839 -1.72626593 13.30828164 -2 16 C-3.32 16.33 -4.64 16.66 -6 17 C-6.05423638 15.08364783 -6.09289963 13.16685075 -6.125 11.25 C-6.14820313 10.18265625 -6.17140625 9.1153125 -6.1953125 8.015625 C-6.00347734 5.05369011 -5.65414136 3.43526367 -4 1 C-1.875 0.25 -1.875 0.25 0 0 Z " fill="#A95B48" transform="translate(187,218)"/>
<path d="M0 0 C0.53625 0.226875 1.0725 0.45375 1.625 0.6875 C1.295 1.6775 0.965 2.6675 0.625 3.6875 C6.235 3.6875 11.845 3.6875 17.625 3.6875 C17.955 4.6775 18.285 5.6675 18.625 6.6875 C18.10550781 6.52765625 17.58601563 6.3678125 17.05078125 6.203125 C9.17302775 4.52862667 0.67795691 4.65723891 -6.375 8.6875 C-6.705 7.6975 -7.035 6.7075 -7.375 5.6875 C-7.045 5.0275 -6.715 4.3675 -6.375 3.6875 C-7.035 3.3575 -7.695 3.0275 -8.375 2.6875 C-2.95961538 -0.38942308 -2.95961538 -0.38942308 0 0 Z " fill="#B77462" transform="translate(138.375,29.3125)"/>
<path d="M0 0 C0.50634631 4.25330903 0.24087041 5.67672656 -2.375 9.1875 C-3.674375 10.5796875 -3.674375 10.5796875 -5 12 C-5.99 13.485 -5.99 13.485 -7 15 C-7 14.01 -7 13.02 -7 12 C-7.66 11.67 -8.32 11.34 -9 11 C-9 6.72237071 -8.82812688 6.25684521 -6.1875 3.25 C-5.40439453 2.32960937 -5.40439453 2.32960937 -4.60546875 1.390625 C-3 0 -3 0 0 0 Z " fill="#BA7866" transform="translate(132,33)"/>
<path d="M0 0 C1.32 0 2.64 0 4 0 C5.1577506 3.47325181 5.06866652 6.36067448 5 10 C3.68 9.01 2.36 8.02 1 7 C1 14.92 1 22.84 1 31 C0.67 31 0.34 31 0 31 C-0.16727437 26.74607233 -0.32786758 22.49196191 -0.48217773 18.23754883 C-0.53566237 16.78923699 -0.59099659 15.34099225 -0.64819336 13.89282227 C-0.72992512 11.81541418 -0.80507768 9.7378583 -0.87890625 7.66015625 C-0.9260376 6.40855713 -0.97316895 5.15695801 -1.02172852 3.86743164 C-1 1 -1 1 0 0 Z " fill="#AB6A5A" transform="translate(111,130)"/>
<path d="M0 0 C0.99 1.32 1.98 2.64 3 4 C3.66 3.34 4.32 2.68 5 2 C5 5.3 5 8.6 5 12 C12.26 12.33 19.52 12.66 27 13 C27 13.33 27 13.66 27 14 C22.87513162 14.08676908 18.75049616 14.14031295 14.625 14.1875 C13.449375 14.21263672 12.27375 14.23777344 11.0625 14.26367188 C9.94101563 14.27333984 8.81953125 14.28300781 7.6640625 14.29296875 C6.62717285 14.3086792 5.5902832 14.32438965 4.52197266 14.34057617 C3.68972168 14.22818604 2.8574707 14.1157959 2 14 C-0.28062828 10.57905758 -0.21925007 9.31812778 -0.125 5.3125 C-0.10695312 4.31863281 -0.08890625 3.32476562 -0.0703125 2.30078125 C-0.04710937 1.54152344 -0.02390625 0.78226562 0 0 Z " fill="#C39183" transform="translate(147,322)"/>
<path d="M0 0 C0.33 0 0.66 0 1 0 C0.67 3.63 0.34 7.26 0 11 C-0.66 11 -1.32 11 -2 11 C-2 20.57 -2 30.14 -2 40 C-2.33 40 -2.66 40 -3 40 C-3.33 27.79 -3.66 15.58 -4 3 C-3.34 2.67 -2.68 2.34 -2 2 C-2 2.66 -2 3.32 -2 4 C-1.34 4 -0.68 4 0 4 C0 2.68 0 1.36 0 0 Z " fill="#BC7B6F" transform="translate(198,173)"/>
<path d="M0 0 C3.78496138 1.51398455 4.0072198 2.0144396 6 6 C14.91 6 23.82 6 33 6 C33 6.33 33 6.66 33 7 C31.84999512 7.029729 31.84999512 7.029729 30.67675781 7.06005859 C27.20082781 7.15535446 23.72549494 7.26501598 20.25 7.375 C18.44015625 7.42140625 18.44015625 7.42140625 16.59375 7.46875 C15.43359375 7.50742188 14.2734375 7.54609375 13.078125 7.5859375 C12.00981445 7.6173584 10.94150391 7.6487793 9.84082031 7.68115234 C7.07126402 7.99200148 5.36716379 8.57670532 3 10 C0.96564469 6.27034861 0 4.33094958 0 0 Z " fill="#B97C6F" transform="translate(126,64)"/>
<path d="M0 0 C0.33 0 0.66 0 1 0 C1.08746928 4.04152915 1.14054982 8.08281305 1.1875 12.125 C1.21263672 13.26710937 1.23777344 14.40921875 1.26367188 15.5859375 C1.35493909 26.0512447 1.35493909 26.0512447 -2 31 C-2.66 30.01 -3.32 29.02 -4 28 C-4.66 28.33 -5.32 28.66 -6 29 C-5.34 25.37 -4.68 21.74 -4 18 C-3.01 18.99 -2.02 19.98 -1 21 C-0.67 14.07 -0.34 7.14 0 0 Z " fill="#C38975" transform="translate(200,209)"/>
<path d="M0 0 C2.475 0.495 2.475 0.495 5 1 C4.67 7.6 4.34 14.2 4 21 C3.67 21 3.34 21 3 21 C2.67 17.37 2.34 13.74 2 10 C1.34 10.66 0.68 11.32 0 12 C0 8.04 0 4.08 0 0 Z " fill="#B06D5D" transform="translate(92,177)"/>
<path d="M0 0 C0.33 0 0.66 0 1 0 C1 7.92 1 15.84 1 24 C0.01 24.33 -0.98 24.66 -2 25 C-2 19.39 -2 13.78 -2 8 C-1.67 8 -1.34 8 -1 8 C-0.67 5.36 -0.34 2.72 0 0 Z " fill="#B36655" transform="translate(199,180)"/>
<path d="M0 0 C0.33 0 0.66 0 1 0 C1.20086443 3.71599191 1.1519437 4.77208445 -1 8 C-0.34 8.33 0.32 8.66 1 9 C-6.28571429 13.57142857 -6.28571429 13.57142857 -11 13 C-11.33 14.32 -11.66 15.64 -12 17 C-12.26953125 14.734375 -12.26953125 14.734375 -12 12 C-10.13671875 10.015625 -10.13671875 10.015625 -7.6875 8.25 C-6.88699219 7.65703125 -6.08648437 7.0640625 -5.26171875 6.453125 C-3 5 -3 5 0 4 C0 2.68 0 1.36 0 0 Z " fill="#C8958A" transform="translate(127,317)"/>
<path d="M0 0 C-0.21484375 1.828125 -0.21484375 1.828125 -1 4 C-3.06640625 5.484375 -3.06640625 5.484375 -5.5625 6.75 C-6.80193359 7.39195313 -6.80193359 7.39195313 -8.06640625 8.046875 C-8.70449219 8.36140625 -9.34257813 8.6759375 -10 9 C-11.04187157 5.87438528 -11.23843794 4.95319818 -10 2 C-6.82026536 -0.35535899 -3.84875379 -0.17494335 0 0 Z " fill="#AE6453" transform="translate(114,101)"/>
<path d="M0 0 C4.51290803 3.33562767 6.68206814 5.33289301 8 11 C7.34 11 6.68 11 6 11 C6 10.34 6 9.68 6 9 C4.02 9.99 4.02 9.99 2 11 C0.68 9.02 -0.64 7.04 -2 5 C-1.34 5 -0.68 5 0 5 C0 3.35 0 1.7 0 0 Z " fill="#B4705F" transform="translate(162,33)"/>
<path d="M0 0 C3.85577028 5.78365542 1.96148196 13.38981152 1 20 C0.67 20 0.34 20 0 20 C-0.33 18.02 -0.66 16.04 -1 14 C-1.33 14 -1.66 14 -2 14 C-2.3690205 4.58997722 -2.3690205 4.58997722 0 0 Z " fill="#AB5A47" transform="translate(123,42)"/>
<path d="M0 0 C0.33 0 0.66 0 1 0 C1.04898438 0.83144531 1.09796875 1.66289062 1.1484375 2.51953125 C1.22320312 3.60621094 1.29796875 4.69289063 1.375 5.8125 C1.44460937 6.89144531 1.51421875 7.97039062 1.5859375 9.08203125 C1.81195733 12.18626186 1.81195733 12.18626186 4 15 C3.34 16.32 2.68 17.64 2 19 C-1.35595828 18.40072174 -3.37801226 17.15377564 -6 15 C-4.02 14.67 -2.04 14.34 0 14 C0 9.38 0 4.76 0 0 Z " fill="#C58A7D" transform="translate(171,291)"/>
<path d="M0 0 C1.32 0.33 2.64 0.66 4 1 C4.36521739 8.30434783 4.36521739 8.30434783 2.6875 11.5 C1 13 1 13 -2 13 C-1.34 8.71 -0.68 4.42 0 0 Z " fill="#A85D4C" transform="translate(128,312)"/>
<path d="M0 0 C0.33 0 0.66 0 1 0 C1 5.61 1 11.22 1 17 C0.01 16.67 -0.98 16.34 -2 16 C-2.05402274 13.89611431 -2.09280256 11.79183286 -2.125 9.6875 C-2.14820313 8.51574219 -2.17140625 7.34398437 -2.1953125 6.13671875 C-2 3 -2 3 0 0 Z " fill="#A95240" transform="translate(176,228)"/>
<path d="M0 0 C0.33 0 0.66 0 1 0 C1 1.98 1 3.96 1 6 C1.66 6 2.32 6 3 6 C3 9.63 3 13.26 3 17 C2.34 15.68 1.68 14.36 1 13 C0.67 15.64 0.34 18.28 0 21 C-0.33 21 -0.66 21 -1 21 C-1.18451025 6.21867882 -1.18451025 6.21867882 0 0 Z " fill="#9E4934" transform="translate(115,182)"/>
<path d="M0 0 C0.61875 0.268125 1.2375 0.53625 1.875 0.8125 C2.205 1.8025 2.535 2.7925 2.875 3.8125 C-3.875 7.8125 -3.875 7.8125 -6.125 7.8125 C-5.8125 4.9375 -5.8125 4.9375 -5.125 1.8125 C-2.125 -0.1875 -2.125 -0.1875 0 0 Z " fill="#AC5E4E" transform="translate(124.125,137.1875)"/>
<path d="M0 0 C0.33 0 0.66 0 1 0 C1 6.93 1 13.86 1 21 C0.67 21 0.34 21 0 21 C0 17.7 0 14.4 0 11 C-0.99 11.33 -1.98 11.66 -3 12 C-2.67 9.03 -2.34 6.06 -2 3 C-1.34 3 -0.68 3 0 3 C0 2.01 0 1.02 0 0 Z " fill="#A44E37" transform="translate(118,265)"/>
<path d="M0 0 C0.33 0 0.66 0 1 0 C1 4.29 1 8.58 1 13 C0.67 13 0.34 13 0 13 C-0.33 15.31 -0.66 17.62 -1 20 C-1.33 20 -1.66 20 -2 20 C-2.05392397 17.22890693 -2.09363455 14.45886182 -2.125 11.6875 C-2.14175781 10.90181641 -2.15851563 10.11613281 -2.17578125 9.30664062 C-2.18544922 8.1706543 -2.18544922 8.1706543 -2.1953125 7.01171875 C-2.20578613 6.31522217 -2.21625977 5.61872559 -2.22705078 4.90112305 C-2 3 -2 3 0 0 Z " fill="#A9533F" transform="translate(176,182)"/>
<path d="M0 0 C0.33 0 0.66 0 1 0 C1.66 3.3 2.32 6.6 3 10 C3.66 9.34 4.32 8.68 5 8 C4.34 10.97 3.68 13.94 3 17 C-0.38262662 13.61737338 -0.92341898 9.3529314 -1.1875 4.6875 C-1 2 -1 2 0 0 Z " fill="#CFA39A" transform="translate(116,60)"/>
<path d="M0 0 C2.15377564 2.62198774 3.40072174 4.64404172 4 8 C2.68 7.67 1.36 7.34 0 7 C-0.33 7.66 -0.66 8.32 -1 9 C-4 4.375 -4 4.375 -4 1 C-2.68 0.67 -1.36 0.34 0 0 Z " fill="#AE6656" transform="translate(97,236)"/>
<path d="M0 0 C0.66 0 1.32 0 2 0 C2 4.95 2 9.9 2 15 C1.01 14.34 0.02 13.68 -1 13 C-1.51171875 10.3984375 -1.51171875 10.3984375 -1.6875 7.375 C-1.75324219 6.37210938 -1.81898437 5.36921875 -1.88671875 4.3359375 C-1.92410156 3.56507813 -1.96148437 2.79421875 -2 2 C-1.34 2 -0.68 2 0 2 C0 1.34 0 0.68 0 0 Z " fill="#A34D3A" transform="translate(108,221)"/>
<path d="M0 0 C0.66 0 1.32 0 2 0 C3.38232443 1.62626404 4.71937515 3.2925002 6 5 C5.67 5.66 5.34 6.32 5 7 C2.4375 7.625 2.4375 7.625 0 8 C-0.79953138 4.71303767 -1.09658936 3.28976808 0 0 Z " fill="#AB5F4E" transform="translate(120,71)"/>
<path d="M0 0 C0.33 0 0.66 0 1 0 C1.33 3.3 1.66 6.6 2 10 C3.65 9.67 5.3 9.34 7 9 C6.67 10.65 6.34 12.3 6 14 C5.34 14 4.68 14 4 14 C3.67 14.66 3.34 15.32 3 16 C-0.05498079 10.21782606 -1.64451156 6.4410036 0 0 Z " fill="#B87E71" transform="translate(102,209)"/>
<path d="M0 0 C-0.1875 2.3125 -0.1875 2.3125 -1 5 C-3.63002642 6.93791421 -5.90113556 7.96704519 -9 9 C-7.39537511 4.18612534 -5.52128094 0 0 0 Z " fill="#B87869" transform="translate(105,104)"/>
<path d="M0 0 C0.33 0.99 0.66 1.98 1 3 C2.65 3 4.3 3 6 3 C6 3.33 6 3.66 6 4 C2.04 4 -1.92 4 -6 4 C-6 3.34 -6 2.68 -6 2 C-6.66 1.67 -7.32 1.34 -8 1 C-5.07175348 0.02391783 -3.04386724 -0.08226668 0 0 Z " fill="#9C4734" transform="translate(145,29)"/>
<path d="M0 0 C0.1875 2.875 0.1875 2.875 0 6 C-3 8 -3 8 -5 8 C-5.99 8.495 -5.99 8.495 -7 9 C-5.25 3.25 -5.25 3.25 -3 1 C-1 0 -1 0 0 0 Z " fill="#AA5844" transform="translate(197,236)"/>
<path d="M0 0 C0.66 0 1.32 0 2 0 C1.67 2.31 1.34 4.62 1 7 C-0.98 7 -2.96 7 -5 7 C-4.34 5.02 -3.68 3.04 -3 1 C-2.01 1.33 -1.02 1.66 0 2 C0 1.34 0 0.68 0 0 Z " fill="#B4725F" transform="translate(188,212)"/>
<path d="M0 0 C0.66 0.33 1.32 0.66 2 1 C0.4169423 5.2742558 -2.50568404 7.26531794 -6 10 C-6 6 -6 6 -4.6875 4.296875 C-4.130625 3.78640625 -3.57375 3.2759375 -3 2.75 C-2.1646875 1.96882813 -2.1646875 1.96882813 -1.3125 1.171875 C-0.879375 0.78515625 -0.44625 0.3984375 0 0 Z " fill="#AB5F4D" transform="translate(147,119)"/>
<path d="M0 0 C0.33 0 0.66 0 1 0 C1.63019694 10.15317287 1.63019694 10.15317287 -1 13.6875 C-1.66 14.120625 -2.32 14.55375 -3 15 C-2.67 11.37 -2.34 7.74 -2 4 C-1.34 4 -0.68 4 0 4 C0 2.68 0 1.36 0 0 Z " fill="#A6513D" transform="translate(170,48)"/>
<path d="M0 0 C0.99 0.33 1.98 0.66 3 1 C3.33 2.65 3.66 4.3 4 6 C3.01 6.66 2.02 7.32 1 8 C-0.32 7.34 -1.64 6.68 -3 6 C-2.34 5.34 -1.68 4.68 -1 4 C-0.3574765 1.93125966 -0.3574765 1.93125966 0 0 Z " fill="#B46E5E" transform="translate(173,327)"/>
<path d="M0 0 C0.33 0 0.66 0 1 0 C1.33 1.65 1.66 3.3 2 5 C2.33 5 2.66 5 3 5 C3 7.97 3 10.94 3 14 C2.01 14 1.02 14 0 14 C0 9.38 0 4.76 0 0 Z " fill="#9F4732" transform="translate(173,261)"/>
<path d="M0 0 C0.66 0 1.32 0 2 0 C2.125 2.875 2.125 2.875 2 6 C0 8 0 8 -2.4375 8.375 C-5 8 -5 8 -6.8125 6 C-7.204375 5.34 -7.59625 4.68 -8 4 C-5.36 4.66 -2.72 5.32 0 6 C0 4.02 0 2.04 0 0 Z " fill="#AD6F60" transform="translate(106,243)"/>
<path d="M0 0 C1.74627478 2.61941217 2.38722388 4.03824877 3 7 C1 7 -1 7 -3 7 C-3.33 7.99 -3.66 8.98 -4 10 C-4.66 9.67 -5.32 9.34 -6 9 C-4.02 6.03 -2.04 3.06 0 0 Z " fill="#B97465" transform="translate(157,101)"/>
<path d="M0 0 C0.33 0 0.66 0 1 0 C1 2.97 1 5.94 1 9 C-0.32 9.33 -1.64 9.66 -3 10 C-3 7.36 -3 4.72 -3 2 C-2.01 2.495 -2.01 2.495 -1 3 C-0.67 2.01 -0.34 1.02 0 0 Z " fill="#9C4937" transform="translate(184,225)"/>
<path d="M0 0 C1 3 1 3 -0.4375 6.1875 C-1.2109375 7.5796875 -1.2109375 7.5796875 -2 9 C-2.33 8.01 -2.66 7.02 -3 6 C-3.66 5.67 -4.32 5.34 -5 5 C-5 3.68 -5 2.36 -5 1 C-3.35 0.67 -1.7 0.34 0 0 Z " fill="#B5735E" transform="translate(128,39)"/>
<path d="M0 0 C0.33 0 0.66 0 1 0 C1 2.97 1 5.94 1 9 C1.66 9 2.32 9 3 9 C3 11.97 3 14.94 3 18 C0.54394629 15.44725126 0.01197061 14.14109357 -0.29296875 10.546875 C-0.25816406 9.29390625 -0.22335938 8.0409375 -0.1875 6.75 C-0.16042969 5.48671875 -0.13335937 4.2234375 -0.10546875 2.921875 C-0.07066406 1.95765625 -0.03585938 0.9934375 0 0 Z " fill="#A24C38" transform="translate(148,313)"/>
<path d="M0 0 C1.32 0 2.64 0 4 0 C4 2.97 4 5.94 4 9 C3.01 9.495 3.01 9.495 2 10 C-0.09350689 6.5980513 -0.17942163 3.94727588 0 0 Z " fill="#B17161" transform="translate(188,226)"/>
<path d="M0 0 C1.09658936 3.28976808 0.79953138 4.71303767 0 8 C-1.32 7.34 -2.64 6.68 -4 6 C-4 5.01 -4 4.02 -4 3 C-2 1.3125 -2 1.3125 0 0 Z " fill="#B77769" transform="translate(129,132)"/>
<path d="M0 0 C0.33 0 0.66 0 1 0 C1.85298376 3.67387495 2.10789471 7.0447393 2.0625 10.8125 C2.05347656 11.78832031 2.04445312 12.76414062 2.03515625 13.76953125 C2.02355469 14.50558594 2.01195312 15.24164063 2 16 C1.67 16 1.34 16 1 16 C0.67 13.69 0.34 11.38 0 9 C-0.33 9 -0.66 9 -1 9 C-1.125 2.25 -1.125 2.25 0 0 Z " fill="#A95746" transform="translate(175,258)"/>
<path d="M0 0 C1.98 0 3.96 0 6 0 C6 0.66 6 1.32 6 2 C6.99 2.66 7.98 3.32 9 4 C6.03 4.66 3.06 5.32 0 6 C0.66 5.67 1.32 5.34 2 5 C2 4.01 2 3.02 2 2 C1.34 1.34 0.68 0.68 0 0 Z " fill="#CEA094" transform="translate(111,100)"/>
<path d="M0 0 C0.33 0 0.66 0 1 0 C1.08153933 1.58246707 1.13943557 3.16616273 1.1875 4.75 C1.23970703 6.07257813 1.23970703 6.07257813 1.29296875 7.421875 C0.94923684 10.44671583 -0.00227459 11.75583602 -2 14 C-2 11.03 -2 8.06 -2 5 C-1.34 5 -0.68 5 0 5 C0 3.35 0 1.7 0 0 Z " fill="#A24832" transform="translate(198,179)"/>
<path d="M0 0 C0.33 0 0.66 0 1 0 C2.32286246 4.96073422 2.08893197 9.91111512 2 15 C1.67 15 1.34 15 1 15 C1 12.36 1 9.72 1 7 C0.34 7 -0.32 7 -1 7 C-1.04254356 5.00045254 -1.04080783 2.99958364 -1 1 C-0.67 0.67 -0.34 0.34 0 0 Z " fill="#BC6958" transform="translate(117,181)"/>
<path d="M0 0 C0.66 0.33 1.32 0.66 2 1 C2 3.31 2 5.62 2 8 C0.68 7.67 -0.64 7.34 -2 7 C-2 5.68 -2 4.36 -2 3 C-1.34 3 -0.68 3 0 3 C0 2.01 0 1.02 0 0 Z " fill="#A5523C" transform="translate(196,169)"/>
<path d="M0 0 C0.66 0.33 1.32 0.66 2 1 C1.34 2.32 0.68 3.64 0 5 C-1.98 5 -3.96 5 -6 5 C-5.67 4.01 -5.34 3.02 -5 2 C-3.35 2 -1.7 2 0 2 C0 1.34 0 0.68 0 0 Z " fill="#AE6150" transform="translate(122,98)"/>
<path d="M0 0 C0.99 0.33 1.98 0.66 3 1 C3.33 1.99 3.66 2.98 4 4 C1 6 1 6 -1.6875 5.625 C-2.450625 5.41875 -3.21375 5.2125 -4 5 C-2.68 3.35 -1.36 1.7 0 0 Z " fill="#C38174" transform="translate(163,65)"/>
<path d="M0 0 C0 0.99 0 1.98 0 3 C0.99 3.33 1.98 3.66 3 4 C1.68 4.99 0.36 5.98 -1 7 C-1.66 6.01 -2.32 5.02 -3 4 C-2.67 3.34 -2.34 2.68 -2 2 C-2.66 1.67 -3.32 1.34 -4 1 C-2 0 -2 0 0 0 Z " fill="#C28677" transform="translate(134,31)"/>
<path d="M0 0 C0.99 0 1.98 0 3 0 C3 2.97 3 5.94 3 9 C2.34 8.01 1.68 7.02 1 6 C0.34 6 -0.32 6 -1 6 C-0.67 4.02 -0.34 2.04 0 0 Z " fill="#A7503A" transform="translate(161,311)"/>
<path d="M0 0 C0 3.96 0 7.92 0 12 C-0.33 12 -0.66 12 -1 12 C-1 10.02 -1 8.04 -1 6 C-1.66 6 -2.32 6 -3 6 C-3 4.35 -3 2.7 -3 1 C-1 0 -1 0 0 0 Z " fill="#AA513C" transform="translate(161,73)"/>
<path d="M0 0 C1.25541557 3.76624671 0.37061958 5.37188934 -1 9 C-2.32 7.35 -3.64 5.7 -5 4 C-4.01 3.67 -3.02 3.34 -2 3 C-1.67 2.34 -1.34 1.68 -1 1 C-0.67 0.67 -0.34 0.34 0 0 Z " fill="#C08674" transform="translate(126,76)"/>
<path d="M0 0 C4.95 0 9.9 0 15 0 C15.33 0.99 15.66 1.98 16 3 C10.72 2.34 5.44 1.68 0 1 C0 0.67 0 0.34 0 0 Z " fill="#D8AEA5" transform="translate(141,33)"/>
<path d="M0 0 C0.66 0.33 1.32 0.66 2 1 C1.67 2.98 1.34 4.96 1 7 C0.01 6.67 -0.98 6.34 -2 6 C-1.125 1.125 -1.125 1.125 0 0 Z " fill="#B15F4A" transform="translate(187,207)"/>
<path d="M0 0 C1.32 0.33 2.64 0.66 4 1 C3.67 2.98 3.34 4.96 3 7 C2.34 7 1.68 7 1 7 C0.67 4.69 0.34 2.38 0 0 Z " fill="#AD604E" transform="translate(158,99)"/>
<path d="M0 0 C0.99 0.33 1.98 0.66 3 1 C3 2.98 3 4.96 3 7 C1.68 7 0.36 7 -1 7 C-0.67 4.69 -0.34 2.38 0 0 Z " fill="#AD4F3A" transform="translate(103,242)"/>
<path d="M0 0 C0.33 0 0.66 0 1 0 C1 2.64 1 5.28 1 8 C0.34 7.67 -0.32 7.34 -1 7 C-1.66 7.66 -2.32 8.32 -3 9 C-2.5020163 5.26512223 -2.12508244 3.18762365 0 0 Z " fill="#AA513B" transform="translate(107,199)"/>
<path d="M0 0 C0.66 0.33 1.32 0.66 2 1 C2.125 6.75 2.125 6.75 1 9 C0.34 9 -0.32 9 -1 9 C-0.67 6.03 -0.34 3.06 0 0 Z " fill="#B97465" transform="translate(176,131)"/>
<path d="M0 0 C4.93928888 -0.3367697 5.78492722 -0.16130459 10 3 C6.7 2.67 3.4 2.34 0 2 C0 1.34 0 0.68 0 0 Z " fill="#B05540" transform="translate(146,30)"/>
<path d="M0 0 C1.5625 1.8125 1.5625 1.8125 3 4 C2.67 4.99 2.34 5.98 2 7 C1.01 6.67 0.02 6.34 -1 6 C-1.8125 4.0625 -1.8125 4.0625 -2 2 C-1.34 1.34 -0.68 0.68 0 0 Z " fill="#A74E39" transform="translate(105,213)"/>
<path d="M0 0 C0.66 0 1.32 0 2 0 C1.34 3.3 0.68 6.6 0 10 C-0.33 10 -0.66 10 -1 10 C-1.9765625 3.9453125 -1.9765625 3.9453125 -2 2 C-1.34 1.34 -0.68 0.68 0 0 Z " fill="#AF6C59" transform="translate(109,196)"/>
<path d="M0 0 C1.65 0 3.3 0 5 0 C4.67 0.99 4.34 1.98 4 3 C3.01 3 2.02 3 1 3 C0.67 3.66 0.34 4.32 0 5 C-0.33 4.01 -0.66 3.02 -1 2 C-0.67 1.34 -0.34 0.68 0 0 Z " fill="#AA5947" transform="translate(159,70)"/>
<path d="M0 0 C0.99 0 1.98 0 3 0 C3.33 1.32 3.66 2.64 4 4 C2.02 4.99 2.02 4.99 0 6 C-1.125 2.25 -1.125 2.25 0 0 Z " fill="#AE5D49" transform="translate(129,68)"/>
<path d="M0 0 C2 3 2 3 1.625 5.1875 C1.41875 5.785625 1.2125 6.38375 1 7 C0.34 6.67 -0.32 6.34 -1 6 C-1.33 6.99 -1.66 7.98 -2 9 C-1.125 1.125 -1.125 1.125 0 0 Z " fill="#A24E38" transform="translate(123,42)"/>
<path d="M0 0 C-0.33 0.99 -0.66 1.98 -1 3 C-2.98 3 -4.96 3 -7 3 C-7.33 4.32 -7.66 5.64 -8 7 C-8 5.35 -8 3.7 -8 2 C-5.09399739 0.74335022 -3.20395416 0 0 0 Z " fill="#C08A7C" transform="translate(123,327)"/>
<path d="M0 0 C0.66 0.66 1.32 1.32 2 2 C1.67 2.66 1.34 3.32 1 4 C1.66 4.33 2.32 4.66 3 5 C2.01 5.33 1.02 5.66 0 6 C-0.66 5.67 -1.32 5.34 -2 5 C-1.34 3.35 -0.68 1.7 0 0 Z " fill="#B96553" transform="translate(129,93)"/>
</svg>
